<?xml version="1.0" encoding="UTF-8"?>
<svg id="Calque_1" data-name="Calque 1" xmlns="http://www.w3.org/2000/svg" viewBox="0 0 385.15 468.35">
  <defs>
    <style>
      .cls-1 {
        fill: #fff;
      }

      .cls-2 {
        stroke-width: 6px;
      }

      .cls-2, .cls-3, .cls-4, .cls-5 {
        fill: none;
        stroke: #1d1d1b;
        stroke-miterlimit: 10;
      }

      .cls-3 {
        stroke-width: 5px;
      }

      .cls-6 {
        fill: #7eb2dd;
      }

      .cls-7 {
        fill: #664147;
      }

      .cls-8 {
        fill: #ca895f;
      }

      .cls-9 {
        fill: #dcab6b;
      }

      .cls-10 {
        fill: #a3f7b5;
      }

      .cls-11 {
        fill: #cbbaed;
      }

      .cls-12 {
        fill: #bb9bb0;
      }

      .cls-13 {
        fill: #1d1d1b;
      }

      .cls-5 {
        stroke-width: 7px;
      }
    </style>
  </defs>
  <g id="couleur">
    <g id="cadre">
      <g>
        <g>
          <polygon class="cls-12" points="267.4 3 382.04 3 382.04 19.18 192.52 236.23 192.44 236.2 267.4 4.98 267.4 3"/>
          <polygon class="cls-11" points="188.63 247.95 149 4.98 149 3 267.4 3 267.4 4.98 192.44 236.2 188.63 247.95"/>
          <polygon class="cls-9" points="382.04 19.18 382.04 163.66 380.06 163.66 194.08 250.42 188.63 247.95 192.44 236.2 192.52 236.23 382.04 19.18"/>
          <polygon class="cls-6" points="122.21 465.15 183.58 257.11 256.08 465.35 122.21 465.35 122.21 465.15"/>
          <polygon class="cls-8" points="382.04 163.66 382.04 285.84 381.64 285.84 194.08 250.42 380.06 163.66 382.04 163.66"/>
          <polygon class="cls-7" points="382.04 285.84 382.04 431.03 181.13 250.09 181.13 250.08 175.92 245.4 179.96 244.03 179.97 244.03 188.63 247.95 194.08 250.42 381.64 285.84 382.04 285.84"/>
          <polygon class="cls-10" points="181.13 250.09 382.04 431.03 382.04 465.35 256.08 465.35 183.58 257.11 181.13 250.09"/>
          <polygon class="cls-1" points="179.96 244.03 175.92 245.4 168.81 238.99 179.96 244.03"/>
          <polygon class="cls-11" points="183.58 257.11 122.21 465.15 122.21 465.35 3 465.35 3 446.29 183.58 257.11"/>
          <polygon class="cls-6" points="149 4.98 188.63 247.95 179.97 244.03 3.65 16.21 3 16.21 3 3 149 3 149 4.98"/>
          <polygon class="cls-10" points="3.65 16.21 179.97 244.03 179.96 244.03 168.81 238.99 3 163.94 3 16.21 3.65 16.21"/>
          <polygon class="cls-12" points="4.39 303.3 175.92 245.4 181.13 250.08 181.13 250.09 183.58 257.11 3 446.29 3 303.3 4.39 303.3"/>
          <polygon class="cls-9" points="168.81 238.99 175.92 245.4 4.39 303.3 3 303.3 3 163.94 168.81 238.99"/>
        </g>
        <g>
          <polygon class="cls-2" points="382.04 431.03 382.04 465.35 256.08 465.35 122.21 465.35 3 465.35 3 446.29 3 303.3 3 163.94 3 16.21 3 3 149 3 267.4 3 382.04 3 382.04 19.18 382.04 163.66 382.04 285.84 382.04 431.03"/>
          <line class="cls-3" x1="3.65" y1="16.21" x2="179.97" y2="244.03"/>
          <polyline class="cls-3" points="179.97 244.03 188.63 247.95 194.08 250.42"/>
          <polyline class="cls-3" points="3 163.94 168.81 238.99 179.96 244.03"/>
          <polyline class="cls-3" points="4.39 303.3 175.92 245.4 179.96 244.03 179.97 244.03"/>
          <line class="cls-3" x1="149" y1="4.98" x2="188.63" y2="247.95"/>
          <polyline class="cls-3" points="267.4 4.98 192.44 236.2 188.63 247.95"/>
          <polyline class="cls-3" points="383.26 17.78 382.04 19.18 192.52 236.23"/>
          <line class="cls-3" x1="380.06" y1="163.66" x2="194.08" y2="250.42"/>
          <line class="cls-3" x1="381.64" y1="285.84" x2="194.08" y2="250.42"/>
          <polyline class="cls-3" points="181.13 250.08 175.92 245.4 168.81 238.99"/>
          <line class="cls-3" x1="382.04" y1="431.03" x2="181.13" y2="250.09"/>
          <polyline class="cls-3" points="256.29 465.94 256.08 465.35 183.58 257.11 181.13 250.09 181.13 250.08"/>
          <line class="cls-3" x1="122.21" y1="465.15" x2="183.58" y2="257.11"/>
          <polyline class="cls-3" points="2.8 446.5 3 446.29 183.58 257.11"/>
        </g>
      </g>
    </g>
    <g id="colombe">
      <g>
        <g>
          <polygon class="cls-13" points="292.34 163.81 293.88 169.6 290.31 172.37 289.16 180.64 286.4 180.26 261.11 183.53 292.34 163.81"/>
          <polygon class="cls-1" points="248.92 223.7 273.4 229.42 263.33 256.67 261.16 256.67 261.16 254.02 225.74 251.64 250.34 261.46 249.25 262.62 220.09 278.69 223.86 282.65 274.04 302.09 259.37 321.53 257.06 323.48 255.46 321.58 234.51 312.06 249.71 326.84 251.1 328.49 243.82 334.62 242.11 332.59 222.93 321.08 237.41 336.55 239.15 338.59 232.19 344.54 212.02 329.02 223.85 347.86 224.5 348.99 209.58 357.63 186.18 309.63 150.87 305.07 127.27 272.34 111.99 223.94 91.17 221.56 110.21 198.03 135.2 199.55 150.67 217.2 217.91 117.03 224.06 170.59 279.2 114.26 292.34 163.81 261.11 183.53 286.4 180.26 289.16 180.64 284 217.84 282.55 217.64 248.92 223.7"/>
          <polygon class="cls-13" points="261.16 254.02 261.16 256.67 254.8 256.67 250.34 261.46 225.74 251.64 261.16 254.02"/>
          <polygon class="cls-13" points="273.4 229.42 248.92 223.7 282.55 217.64 284 217.84 283.37 222.36 275.43 223.94 273.41 229.42 273.4 229.42"/>
          <polygon class="cls-13" points="255.46 321.58 257.06 323.48 251.1 328.49 249.71 326.84 234.51 312.06 255.46 321.58"/>
          <polygon class="cls-13" points="242.11 332.59 243.82 334.62 243.1 335.22 239.15 338.59 237.41 336.55 222.93 321.08 242.11 332.59"/>
          <polygon class="cls-13" points="232.19 344.54 224.5 348.99 223.85 347.86 212.02 329.02 232.19 344.54"/>
        </g>
        <g>
          <polyline class="cls-5" points="273.4 229.42 263.33 256.67 261.16 256.67 254.8 256.67 250.34 261.46 249.25 262.62 220.09 278.69 223.86 282.65 274.04 302.09 259.37 321.53 257.06 323.48 251.1 328.49 243.82 334.62 243.1 335.22 239.15 338.59 232.19 344.54 224.5 348.99 209.58 357.63 186.18 309.63 150.87 305.07 127.27 272.34 111.99 223.94 91.17 221.56 110.21 198.03 135.2 199.55 150.67 217.2 217.91 117.03 224.06 170.59 279.2 114.26 292.34 163.81 293.88 169.6 290.31 172.37 289.16 180.64 284 217.84 283.37 222.36 275.43 223.94 273.41 229.42"/>
          <polyline class="cls-3" points="152.42 220.84 155.26 222.73 155.53 222.91"/>
          <polyline class="cls-3" points="223.04 172.82 171.52 228.27 170.48 229.39"/>
          <polyline class="cls-3" points="154.94 222.62 155.26 222.73 171.52 228.27 173.14 228.82"/>
          <polyline class="cls-4" points="293.88 162.84 292.34 163.81 261.11 183.53"/>
          <line class="cls-4" x1="286.4" y1="180.26" x2="261.11" y2="183.53"/>
          <line class="cls-4" x1="282.55" y1="217.64" x2="248.92" y2="223.7"/>
          <polyline class="cls-4" points="273.41 229.42 273.4 229.42 248.92 223.7"/>
          <line class="cls-4" x1="261.16" y1="254.02" x2="225.74" y2="251.64"/>
          <polyline class="cls-4" points="253.25 262.62 250.34 261.46 225.74 251.64"/>
          <line class="cls-4" x1="255.46" y1="321.58" x2="234.51" y2="312.06"/>
          <line class="cls-4" x1="223.85" y1="347.86" x2="212.02" y2="329.02"/>
          <line class="cls-4" x1="232.19" y1="344.54" x2="212.02" y2="329.02"/>
          <line class="cls-4" x1="237.41" y1="336.55" x2="222.93" y2="321.08"/>
          <line class="cls-4" x1="249.71" y1="326.84" x2="234.51" y2="312.06"/>
          <line class="cls-4" x1="242.11" y1="332.59" x2="222.93" y2="321.08"/>
        </g>
      </g>
    </g>
  </g>
</svg>