<svg xmlns="http://www.w3.org/2000/svg" width="798" height="798" viewBox="0 0 798 798">
  <defs>
    <style>
      .cls-1 {
        fill: #c0867b;
        fill-rule: evenodd;
      }
    </style>
  </defs>
  <path id="V" class="cls-1" d="M33.2,77.25c26.208,1.417,47.458,27.625,64.458,79.333L222.323,518.538h20.541l140.958-355.58c21.958-55.25,46.041-83.583,71.541-85.708V60.958H300.239V77.25c29.75,0,51,2.833,54.541,46.75,0,14.874-3.542,36.124-11.333,63.749s-14.875,48.166-21.25,63.041L255.614,420.081,145.823,104.166q-4.249-11.687-4.25-17c0-6.375,4.959-9.917,14.167-9.917V60.958H33.2V77.25Z"/>
  <path id="G" class="cls-1" d="M709.829,301.385q-68-21.249-125.374-21.249c-74.374,0-135.291,24.791-182.749,75.082S330.874,466.426,330.874,536.55c0,68.708,25.5,126.083,62.333,157.249,36.124,31.875,77.207,48.875,114.749,48.875,27.624,0,56.666-9.208,87.832-26.917l14.167-8.5c19.125-13.458,34.708-19.833,48.166-19.833,31.167,0,46.75,20.542,46.75,60.917h16.292V605.967c0-22.667,9.208-46.75,34.708-47.458V542.217H583.038v16.292h12.75c45.333,0,65.167,16.291,65.167,52.416,0,23.375-9.917,43.916-29.75,60.916-19.833,17.708-45.333,26.208-75.791,26.208-46.75,0-86.416-19.833-118.291-60.208s-48.166-90.666-48.166-151.582c0-59.5,16.291-104.833,49.583-136.707,32.583-31.167,70.832-46.75,114.04-46.75,70.125,0,121.124,36.125,132.458,103.416h24.791V301.385Z"/>
  <path id="_" data-name="&amp;" class="cls-1" d="M546.053,119.729c4.333-3.334,11.333-7.667,20.333-13.334,27.666-17.333,37.332-27.666,37.332-42.665,0-17.333-16.666-27.666-36.666-27.666-9.333,0-22.333,2-38,8-16,6-28.333,19.333-28.333,36.666,0,12.667,6,30.333,17.666,52.666-10.333,8-18.666,15-25.332,21-6.667,6.333-13,14.333-19.334,24-6.333,10-9.666,19.667-9.666,29,0,12,4.333,22.666,12.666,32,8.334,9.667,18.333,14.334,30.333,14.334,20,0,35-13.334,60.666-45,7,8.333,12.333,14.667,16.333,19,3.667,4.333,10,10,18.333,16.333s15.333,9.667,21,9.667c5,0,10.666-3,16.333-9a101.234,101.234,0,0,0,13.666-17.667c3.334-5.666,7.667-13.666,13.334-24l-6.667-3.334c-3.333,5.667-6,9.667-8,12.667-4.333,5.666-12.333,13.333-18,13.333-4.333,0-10.333-3.333-18-10.333-15.333-13.667-22.667-24-29.667-33.666,21-34.333,40.666-52,72.333-53.666v-8.333H600.385c-3,21-9.666,39.332-19.666,54.665l-4.667-7Zm-3.334-6.667c-9.666-18.333-14.333-32-14.333-40.333,0-15,9.667-27.666,26.667-27.666,14.666,0,21.666,9.667,21.666,19.333,0,12.333-7.333,24-28.666,43.666Zm-21,26.666c9,16.667,22.666,37.666,41.332,63-14.666,17.667-27.666,26.667-39.332,26.667-17,0-28.667-15.333-28.667-35.667C495.053,175.394,504.053,157.4,521.72,139.728Z"/>
</svg>
