<?xml version="1.0" encoding="utf-8"?>
<svg viewBox="0 0 960 540" xmlns="http://www.w3.org/2000/svg">
  <g transform="matrix(-1, 0, 0, 1, -14.009983, 95.525751)">
    <path d="M 21.774 -423.518 C 92.274 -385.618 142.461 -339.799 150.261 -264.999 C 158.061 -190.199 234.537 -90.531 209.337 -19.031 C 184.237 52.469 283.7 171.9 245.2 207.7 C 206.7 243.5 141.4 251.3 83.1 256.1 C 24.8 261 -26.5 262.9 -107.2 278.7 C -187.9 294.4 -370.45 401.92 -362.4 291 C -354.35 180.08 -306.216 199.352 -428.9 80 C -551.584 -39.352 -1022.562 -54.889 -998.325 -124.288 C -974.088 -193.687 -1224.681 -162.038 -1173.281 -208.738 C -1121.881 -255.438 -504.331 -487.331 -412.431 -479.231 C -320.531 -471.031 -159.789 -504.709 -89.289 -466.709" fill="#FFFDF8"/>
  </g>
</svg>