<svg id="visual" viewBox="0 0 960 540" width="960" height="540" xmlns="http://www.w3.org/2000/svg" xmlns:xlink="http://www.w3.org/1999/xlink" version="1.1"><g transform="translate(449.2486665322711 273.86830725830754)"><path d="M127.5 -148.7C171.8 -114.7 218.8 -80.8 219.4 -43.7C220 -6.6 174.1 33.7 138.5 65.5C102.9 97.3 77.6 120.5 41.4 149.1C5.1 177.6 -42.1 211.4 -80.5 204.6C-119 197.8 -148.7 150.4 -156 105.6C-163.3 60.9 -148.1 18.7 -135.8 -19.3C-123.6 -57.3 -114.2 -91.1 -92 -129C-69.8 -166.9 -34.9 -209 3.3 -212.9C41.6 -216.9 83.1 -182.7 127.5 -148.7" fill="#fffdf8"></path></g></svg>