<?xml version="1.0" encoding="utf-8"?>
<svg viewBox="-225.447 -53.013 896.764 602.678" xmlns="http://www.w3.org/2000/svg">
  <polygon points="199.616 258.44 160.616 258.44 163.616 226.44 194.616 226.44 199.616 258.44" style="fill: rgb(254, 170, 170);"/>
  <g transform="matrix(1, 0, 0, 1, -221.853137, -43.927808)">
    <g/>
    <polygon points="366.26814 534.67861 372.82329 564.09038 393.34375 561.24031 387.64362 531.02964 366.26814 534.67861" style="fill: rgb(255, 182, 182);"/>
    <polygon points="476.28061 534.67861 469.72546 564.09038 449.205 561.24031 454.90513 531.02964 476.28061 534.67861" style="fill: rgb(255, 182, 182);"/>
    <path d="M515.09057,467.11055l-36.93254-112.49959c-8.26219-25.1674-31.7549-42.18122-58.2438-42.18122h-.0001c-29.46365,0-54.75974,20.96077-60.23453,49.91133l-20.42538,108.00942c-2.92479,15.4664,8.60422,29.79771,24.16386,30.43772v73.84741h5.70013v-73.81665h119.70268v73.81665h5.70013v-74.10932c15.3997-2.28214,25.61495-18.04711,20.56955-33.41575Z" fill="#ccc"/>
    <path d="M438.65977,390.52149l-69.54156,2.28005s-26.22059,46.74105,19.95045,53.01119c46.17104,6.27014,86.64194-.57001,88.35198-20.52046s-12.54028-35.34079-38.76087-34.77078Z" fill="#2f2e41"/>
    <path d="M382.2285,395.6516s-26.22059,2.85006-28.50064,10.26023c-2.28005,7.41017-3.42008,39.90089-3.42008,39.90089l10.26023,94.05211,29.07065-3.42008-6.27014-90.06202,33.63075-7.41017-34.77078-43.32097Z" fill="#2f2e41"/>
    <path d="M376.52837,550.69508s-8.62649-5.70013-10.86839-3.13507-14.21217,15.10534-14.21217,15.10534l-21.09047,13.11029s-18.24041,17.10038,7.41017,16.53037c25.65058-.57001,38.76087-8.29212,38.76087-8.29212,0,0,24.51055-.25808,23.94054-7.09823-.57001-6.84015-8.84071-24.76776-8.84071-24.76776l-15.09983-1.45283Z" fill="#2f2e41"/>
    <path d="M460.32025,395.6516s26.22059,2.85006,28.50064,10.26023,3.42008,39.90089,3.42008,39.90089l-10.26023,94.05211-29.07065-3.42008,6.27014-90.06202-33.63075-7.41017,34.77078-43.32097Z" fill="#2f2e41"/>
    <path d="M466.02038,550.69508s8.62649-5.70013,10.86839-3.13507,14.21217,15.10534,14.21217,15.10534l21.09047,13.11029s18.24041,17.10038-7.41017,16.53037-38.76087-8.29212-38.76087-8.29212c0,0-24.51055-.25808-23.94054-7.09823,.57001-6.84015,8.84071-24.76776,8.84071-24.76776l15.09983-1.45283Z" fill="#2f2e41"/>
    <path d="M418.13931,285.63913h-33.08992l-25.05139,11.40026,5.70013,75.24169s-7.10496,22.87521,1.57763,24.26289c8.6826,1.38768,56.56367,9.93787,69.67396,2.52771,13.11029-7.41017,24.51055-5.13012,24.51055-5.13012l-15.39035-99.75224-27.93063-8.55019Z" fill="#3f3d56"/>
    <circle cx="402.46395" cy="251.72337" r="30.78069" style="fill: rgb(255, 182, 182);"/>
    <path d="M370.79705,256.76148l5.31747,6.93216,7.31723-10.26023s.60977,9.1202,20.73215,5.70013,25.00053-4.5601,25.00053-4.5601l2.43908,10.26023s2.43908-6.84015,2.43908-11.40026,14.63446-15.39035-.60977-24.51055-7.31723-17.6704-26.22007-17.10038c-18.90284,.57001-30.48845,0-32.31776,6.84015-1.82931,6.84015-6.09769,15.39035-5.48792,22.80051s1.38999,15.29834,1.38999,15.29834Z" fill="#2f2e41"/>
    <path id="uuid-7ddbc389-7cdc-46c2-935f-0ff8b929a928-453" d="M429.02933,391.70839c-7.4104,2.46154-14.68722,.63326-16.25299-4.08302-1.56577-4.71628,3.17215-10.53354,10.58552-12.99497,2.94785-1.02386,6.09803-1.32688,9.18698-.88369l31.52987-10.03314,4.39288,14.8964-31.54925,8.30937c-2.21079,2.20381-4.91731,3.84599-7.89301,4.78905Z" fill="#a0616a"/>
    <g>
      <path id="uuid-04944d89-6e1c-4a13-b790-56aa68a198ee-454" d="M284.56081,358.39297c-7.09525-3.26046-11.16423-9.56429-9.08851-14.07941,2.07572-4.51512,9.50916-5.53118,16.6065-2.26861,2.85297,1.26438,5.36167,3.19359,7.31619,5.62627l29.88841,14.19435-6.95995,13.88377-28.72575-15.46713c-3.11996,.10101-6.21873-.54681-9.0369-1.88924Z" style="fill: rgb(255, 182, 182);"/>
      <path d="M359.89499,296.87878s11.85982,4.84008,11.49188,17.75793-9.43396,30.97055-9.43396,30.97055c0,0-.63261,40.75399-11.775,45.16527s-45.57562-23.85983-45.57562-23.85983l7.95328-15.19187,14.86359-1.71459,32.47583-53.12745Z" fill="#3f3d56"/>
    </g>
    <path d="M437.51974,296.46938s11.97027-4.5601,20.52046,5.13012,14.25032,29.07065,14.25032,29.07065c0,0,27.36061,30.21068,22.2305,41.04092-5.13012,10.83024-49.59111,13.68031-49.59111,13.68031l-4.5601-16.53037,9.69022-11.40026-12.54028-60.99137Z" fill="#3f3d56"/>
    <path d="M468.49725,409.0469h-97.29581c-5.44257,0-9.87034-4.42777-9.87034-9.87014v-56.64143c0-5.44237,4.42777-9.87014,9.87034-9.87014h97.29581c5.44257,0,9.87034,4.42777,9.87034,9.87014v56.64143c0,5.44237-4.42777,9.87014-9.87034,9.87014Z" style="fill: rgb(255, 231, 171);"/>
    <g transform="matrix(1, 0, 0, 1, 1.674103, 22.879456)"/>
    <g>
      <path stroke-width="0" d="M 225.891 89.417 C 244.306 86.692 275.65 90.314 292.846 93.668 C 305.57 96.15 315.118 99.89 322.603 104.296 C 328.587 107.818 331.681 110.895 335.888 116.518 C 341.2 123.615 347.793 133.558 350.767 145.212 C 354.338 159.205 354.827 180.133 352.892 196.226 C 351.047 211.58 346.635 227.368 340.139 239.799 C 334.105 251.347 329.047 258.716 316.227 269.025 C 297.093 284.412 234.229 312.299 226.423 318.976 C 224.388 320.716 225.568 321.359 224.829 322.164 C 224.129 322.925 223.706 322.273 222.172 323.758 C 217.369 328.407 199.457 357.038 188.694 365.738 C 180.681 372.215 173.144 374.451 165.313 376.365 C 157.907 378.176 151.78 378.32 142.995 377.428 C 131.741 376.285 112.515 372.531 102.61 367.863 C 95.044 364.298 88.653 356.786 86.137 354.578 C 85.11 353.677 85.503 354.083 84.543 352.984 C 81.913 349.976 70.205 338.911 67.007 331.197 C 64.08 324.136 62.742 316.058 64.881 308.879 C 67.247 300.944 76.804 291.961 82.417 286.03 C 87 281.187 93.083 279.932 95.702 274.871 C 98.548 269.37 98.473 260.187 97.827 253.615 C 97.227 247.503 93.513 243.623 92.514 236.611 C 91.219 227.529 91.547 210.66 92.514 202.602 C 93.153 197.269 93.474 195.095 95.702 190.912 C 98.563 185.539 103.464 178.651 110.049 173.376 C 117.923 167.069 132.569 165.076 141.401 156.903 C 150.884 148.127 155.692 130.308 164.251 121.3 C 171.687 113.473 179.2 109.37 188.694 104.296 C 199.386 98.583 210.908 91.634 225.891 89.417 Z" style="stroke-width: 2px; fill: rgb(255, 253, 248);"/>
    </g>
    <g transform="matrix(1, 0, 0, 1, -2.685839, 9.205302)">
      <path d="M683.44244,573.54755l-12.92413-27.31384-.07706,.05597v-35.5014h-11.62479v35.50134l-.077-.05597-12.92413,28.08887c-.38345,.67267-.14899,1.52887,.52368,1.91229,.57031,.32513,1.28983,.211,1.73151-.27466l13.21915-15.46802,2.13943,14.08411c.08524,.76965,.77826,1.32446,1.54788,1.2392,.65213-.0722,1.16696-.58704,1.2392-1.2392l2.11588-13.92908,12.85519,14.53802c.52097,.57281,1.40768,.61487,1.9805,.09387,.48563-.44171,.59979-1.16119,.27469-1.73151Z" fill="#2f2e41"/>
      <path d="M591.12095,470.96295c-2.05826,13.617,27.72426,37.55383,71.63115,44.19055s86.74298-2.94934,88.80127-16.56635-32.07538-27.52386-75.98227-34.16058-82.39188-7.08057-84.45015,6.53638Z" fill="#ffda79"/>
      <path d="M591.12095,470.96295c-2.05826,13.617,27.72426,37.55383,71.63115,44.19055s86.74298-2.94934,88.80127-16.56635-32.07538-27.52386-75.98227-34.16058-82.39188-7.08057-84.45015,6.53638Z" isolation="isolate" opacity=".3"/>
      <path d="M592.85092,468.97015c-1.69518,11.21478,27.36725,30.46362,71.27411,37.10034s86.18201,1.89398,87.87714-9.3208-32.5242-25.68628-76.43109-32.323-81.02499-6.67133-82.72015,4.54346Z" style="fill: rgb(255, 231, 171);"/>
    </g>
  </g>
</svg>