<?xml version="1.0" encoding="utf-8"?>
<svg viewBox="-2.595 -2.595 752.216 653.298" xmlns="http://www.w3.org/2000/svg">
  <path d="M973.83687,440.79719c0,144.48-127.12012,266.27-300.58008,303.66a527.70633,527.70633,0,0,1-85.56982,11.18c-1.39991.07-2.8003.13995-4.21.19q-11.23536.465-22.64014.47-19.8296,0-39.18994-1.41-10.74024-.765-21.3003-1.95c-68.46972-7.68-131.47949-28.19-184.6997-58.24q-9.97485-5.625-19.48-11.7a388.08909,388.08909,0,0,1-33.56006-23.96c-71.08984-56.66-11.81983-177.6,25.23-253.74,100-205.5,44.91016-280,273-280S973.83687,266.54719,973.83687,440.79719Z" fill="#f2f2f2" transform="matrix(1, 0, 0, 1, -226.163132, -125.297195)"/>
  <path d="M810.37547,255.36474c-70.89224-1.27125-70.881-106.62479.0023-107.88562C881.26771,148.75029,881.25651,254.10383,810.37547,255.36474Z" transform="matrix(1, 0, 0, 1, -226.163132, -125.297195)" fill="#fff"/>
  <path d="M676.30805,412.36474c-70.89225-1.27125-70.881-106.62479.00229-107.88562C747.20029,305.75029,747.18909,411.10383,676.30805,412.36474Z" transform="matrix(1, 0, 0, 1, -226.163132, -125.297195)" fill="#fff"/>
  <path d="M816.15568,571.78943c-70.89224-1.27124-70.881-106.62479.0023-107.88561C887.04793,465.175,887.03673,570.52853,816.15568,571.78943Z" transform="matrix(1, 0, 0, 1, -226.163132, -125.297195)" fill="#fff"/>
  <path d="M810.37547,255.36474c-70.89224-1.27125-70.881-106.62479.0023-107.88562C881.26771,148.75029,881.25651,254.10383,810.37547,255.36474Zm0-104.61643c-66.59571,1.19444-66.58519,100.16243.00216,101.34709C876.97118,250.901,876.96066,151.933,810.37547,150.74831Z" transform="matrix(1, 0, 0, 1, -226.163132, -125.297195)" fill="#e6e6e6"/>
  <path d="M 223.773 618.868 C 223.773 618.868 243.323 623.063 243.271 622.566 C 240.636 619.674 236.684 532.475 237 532.821 C 236.974 532.538 231.508 512.831 231.454 512.552 C 230.691 508.439 236.951 503.253 233.166 502.65 L 132.803 503.128 C 128.905 502.487 125.08 504.703 123.366 508.598 C 121.733 512.332 120.134 516.12 118.57 519.96 C 112.236 535.43 105.606 556.851 100.281 574.092 C 145.773 602.284 165.245 611.663 223.773 618.868 Z" fill="#2f2e41" style=""/>
  <path d="M614.7091,438.02585a24.76271,24.76271,0,0,0-.56294,3.85832l-101.055,58.29822L488.52834,486.042l-26.18543,34.28046,41.05094,29.25861a18.81956,18.81956,0,0,0,22.57921-.55008l104.20507-82.2081a24.69383,24.69383,0,1,0-15.469-28.797Z" transform="matrix(1, 0, 0, 1, -226.163132, -125.297195)" fill="#ffb8b8"/>
  <path d="M511.707,494.35719a10.6073,10.6073,0,0,0-5.21-7.12l-46.37012-25.93a29.39906,29.39906,0,0,0-36.04981,46.45l36.96973,38.38995a10.59087,10.59087,0,0,0,16.01025-.87l7.19971-9.34,2.46-3.18,23-29.81a10.3686,10.3686,0,0,0,1.81006-3.66A10.52108,10.52108,0,0,0,511.707,494.35719Z" transform="matrix(1, 0, 0, 1, -226.163132, -125.297195)" fill="#ffda79"/>
  <circle cx="403.71232" cy="374.43582" r="57.77844" transform="matrix(0.707107, -0.707107, 0.707107, 0.707107, -372.684625, 269.840238)" fill="#ffb8b8"/>
  <path d="M 241.809 467.83 C 243.25 464.36 240.376 440.94 252.708 413.49 C 253.554 411.607 251.832 409.442 251.247 407.46 C 248.752 399.197 244.768 391.52 239.512 384.85 C 239.579 383.01 239.56 381.2 239.456 379.4 L 239.456 379.39 C 237.857 353.531 218.436 332.863 193.922 330.93 L 132.623 326.02 C 116.606 324.643 100.972 331.658 90.809 344.78 C 89.656 346.253 88.576 347.789 87.573 349.38 C 87.569 349.38 87.564 349.385 87.565 349.39 C 79.743 361.833 77.438 377.244 81.246 391.62 L 81.768 394.04 L 88.304 424.25 L 99.231 474.8 L 105.56 526.522 L 104.416 538.955 C 105.466 543.765 98.653 561.121 103.334 561.13 C 103.881 561.133 98.939 567.876 99.478 567.78 L 242.73 572.09 C 244.404 571.808 237.701 516.836 239.032 515.728 C 239.831 515.057 237.447 509.941 238.026 509.054 C 239.588 506.672 240.412 502.239 239.829 499.409 L 241.809 467.83 Z" fill="#ffda79" style=""/>
  <path d="M230.68442,763.74794a25.27155,25.27155,0,0,1,10.04543-37.42624L311.923,507.43421l41.25807,19.577L275.28424,740.13945a25.40853,25.40853,0,0,1-44.59982,23.60849Z" transform="matrix(1, 0, 0, 1, -226.163132, -125.297195)" fill="#ffb8b8"/>
  <path d="M352.69673,455.72719a31.50887,31.50887,0,0,0-38.52,18.95.00964.00964,0,0,0-.00976.01c-.26026.67-.5,1.37-.71,2.07l-6.03028,12.79-18.21972,38.65a11.32038,11.32038,0,0,0,6.96972,15.68l3.5503,1.07,15.21972,4.6,27.01026,8.16,9,2.72a11.33277,11.33277,0,0,0,14.48974-9.2l8.32032-56.44A31.46076,31.46076,0,0,0,352.69673,455.72719Z" transform="matrix(1, 0, 0, 1, -226.163132, -125.297195)" fill="#ffda79"/>
  <path d="M676.30815,412.36474c-70.89224-1.27125-70.881-106.62479.0023-107.88562C747.20011,305.75033,747.18891,411.10379,676.30815,412.36474Zm0-104.61643c-66.59571,1.19444-66.58519,100.16243.00216,101.34709C742.90358,407.901,742.89306,308.93308,676.30815,307.74831Z" transform="matrix(1, 0, 0, 1, -226.163132, -125.297195)" fill="#e6e6e6"/>
  <path d="M816.15568,571.78943c-70.89224-1.27124-70.881-106.62479.0023-107.88561C887.04793,465.175,887.03673,570.52853,816.15568,571.78943Zm0-104.61643c-66.59571,1.19445-66.58518,100.16244.00216,101.34709C882.75139,567.32572,882.74087,468.35773,816.15568,467.173Z" transform="matrix(1, 0, 0, 1, -226.163132, -125.297195)" fill="#e6e6e6"/>
  <path d="M821.89715,173.76957c-13.29913.38213-39.1602-4.37134-39.17334,16.132.38137,13.2982-4.37211,39.15928,16.13129,39.1724,13.29818-.38136,39.15918,4.37207,39.17233-16.13126C837.64607,199.64455,842.39953,173.78351,821.89715,173.76957Z" transform="matrix(1, 0, 0, 1, -226.163132, -125.297195)" fill="#3f3d56"/>
  <path d="M825.35369,189.90065c-4.47514.05621-4.46012-6.97422.01517-6.89828C829.84387,182.94695,829.82846,189.97593,825.35369,189.90065Z" transform="matrix(1, 0, 0, 1, -226.163132, -125.297195)" fill="#fff"/>
  <path d="M810.37566,192.20419c11.9598-.17572,11.9599,18.61285-.0009,18.4358-11.959.17363-11.95907-18.61123.0009-18.4358Zm0-4.60835c-17.93741-.262-17.94044,27.9167.00117,27.65248,17.93934.26208,17.93685-27.91659-.00117-27.65246Z" transform="matrix(1, 0, 0, 1, -226.163132, -125.297195)" fill="#fff"/>
  <path d="M718.77476,526.94188a1.63131,1.63131,0,0,1-1.231-2.75307l5.44174-5.75036a.93766.93766,0,0,0-.0365-1.324l-5.78167-5.47152a1.6763,1.6763,0,0,1-.0653-2.36979h0a1.68045,1.68045,0,0,1,2.36211-.07257l7.778,7.26842a1.58516,1.58516,0,0,1,.06216,2.25494l-7.39561,7.717A1.628,1.628,0,0,1,718.77476,526.94188Z" transform="matrix(1, 0, 0, 1, -226.163132, -125.297195)" fill="#ccc"/>
  <path d="M712.832,518.57277a.996.996,0,0,1-.64947.26348l-18.13492.5a.99984.99984,0,1,1-.05507-1.99892l18.13492-.5a.99988.99988,0,0,1,.70454,1.73545Z" transform="matrix(1, 0, 0, 1, -226.163132, -125.297195)" fill="#ccc"/>
  <path d="M578.77476,367.51719a1.63131,1.63131,0,0,1-1.231-2.75307l5.44174-5.75036a.93766.93766,0,0,0-.0365-1.324l-5.78167-5.47153a1.6763,1.6763,0,0,1-.0653-2.36979h0a1.68045,1.68045,0,0,1,2.36211-.07256l7.778,7.26842a1.58514,1.58514,0,0,1,.06216,2.25493l-7.39561,7.71706A1.628,1.628,0,0,1,578.77476,367.51719Z" transform="matrix(1, 0, 0, 1, -226.163132, -125.297195)" fill="#ccc"/>
  <path d="M572.832,359.14807a.99586.99586,0,0,1-.64947.26348l-18.13492.5a.99984.99984,0,1,1-.05507-1.99892l18.13492-.5a.99987.99987,0,0,1,.70454,1.73544Z" transform="matrix(1, 0, 0, 1, -226.163132, -125.297195)" fill="#ccc"/>
  <path d="M712.77476,210.51719a1.63131,1.63131,0,0,1-1.231-2.75307l5.44174-5.75036a.93766.93766,0,0,0-.0365-1.324l-5.78167-5.47153a1.6763,1.6763,0,0,1-.0653-2.36979h0a1.68045,1.68045,0,0,1,2.36211-.07256l7.778,7.26842a1.58514,1.58514,0,0,1,.06216,2.25493l-7.39561,7.71706A1.628,1.628,0,0,1,712.77476,210.51719Z" transform="matrix(1, 0, 0, 1, -226.163132, -125.297195)" fill="#ccc"/>
  <path d="M706.832,202.14807a.99586.99586,0,0,1-.64947.26348l-18.13492.5a.99984.99984,0,1,1-.05507-1.99892l18.13492-.5a.99987.99987,0,0,1,.70454,1.73544Z" transform="matrix(1, 0, 0, 1, -226.163132, -125.297195)" fill="#ccc"/>
  <path d="M694.207,720.1772c-4.68994,9.74-12.33008,17.62-20.9502,24.28a527.70633,527.70633,0,0,1-85.56982,11.18c-1.39991.07-2.8003.13995-4.21.19q-11.23536.465-22.64014.47-19.8296,0-39.18994-1.41a31.78823,31.78823,0,0,1-.2002-8.98c1.43018-11.69,10.3003-22.43,21.81006-24.91,11.51026-2.48,24.62988,4.39,28.12012,15.63,1.93017-21.68,4.14014-44.26,15.66992-62.72,10.43018-16.71,28.5-28.67,48.08984-30.81a60.541,60.541,0,0,1,33.47022,6.13q1.42529.72,2.81982,1.5a55.84729,55.84729,0,0,1,16.13037,13.77C699.77681,679.95717,702.76705,702.43721,694.207,720.1772Z" transform="matrix(1, 0, 0, 1, -226.163132, -125.297195)" fill="#fff"/>
  <path d="M671.42671,650.72719a1.52177,1.52177,0,0,1-.61963,1.37,316.87578,316.87578,0,0,0-83.12011,103.54c-1.39991.07-2.8003.13995-4.21.19q2.66967-5.41506,5.54-10.72a322.1728,322.1728,0,0,1,34.90966-51.67,318.079,318.079,0,0,1,44.26026-43.95,1.91747,1.91747,0,0,1,.41992-.26A2.05,2.05,0,0,1,671.42671,650.72719Z" transform="matrix(1, 0, 0, 1, -226.163132, -125.297195)" fill="#f2f2f2"/>
  <path d="M845.444,504.237s-4.58008,5.13-5.46,5.46c-2.41992,26.33-18.85987,32.31-32.06006,32.31-9.48975,0-17.31006-3.09-17.04981-3.94,14.08008.33,15.27979-5.44995,15.27979-5.44995-8.18018-1.21-9.81983-6.55005-9.81983-6.55005a3.36963,3.36963,0,0,0,4.35987-1.09c-8.83008-2.3-7.62988-10.92-7.62988-10.92a11.36779,11.36779,0,0,0,5.33984,2.08c-.98-1.2-9.23975-11.1-4.27-16.23.29.78,8.89014,12.49,23.26025,11.64a11.55176,11.55176,0,0,1,11.23975-13.86c7.64014,0,9.28027,4.37,9.28027,4.37l5.46-3.28c-.11035,0-.66015,5.46-3.39013,6.55Z" transform="matrix(1, 0, 0, 1, -226.163132, -125.297195)" fill="#3f3d56"/>
  <path d="M 217.077 180.3 C 213.232 180.105 208.202 180.86 207.716 184.776 C 207.369 187.541 209.712 189.919 211.902 191.663 C 214.947 194.095 218.154 196.362 220.807 199.252 C 223.458 202.142 225.552 205.8 225.756 209.706 C 225.961 213.607 223.866 217.684 220.303 218.82 C 216.736 219.957 212.121 217.177 211.913 213.271 C 208.649 218.743 208.455 225.639 208.529 232.184 C 208.57 236.016 208.675 239.848 208.832 243.683 C 209.058 248.92 209.39 254.152 209.719 259.387 C 207.238 259.522 186.854 251.707 183.956 251.707 C 181.459 251.707 161.602 255.817 163.166 261.716 C 162.623 257.944 143.267 251.155 142.949 253.13 C 142.641 255.1 141.303 257.183 139.349 257.067 C 137.29 256.94 136.09 254.59 135.319 252.593 C 133.609 248.126 129.567 240.404 125.661 242.711 C 96.036 260.173 120.682 265.615 124.551 272.717 C 129.309 281.445 134.37 290.526 142.437 296.099 C 150.511 301.665 156.971 308.316 162.865 300.826 C 178.837 312.534 194.127 309.71 211.957 303.032 C 229.785 296.362 243.617 280.029 247.721 260.803 C 249.602 251.99 255.423 248.122 250.668 240.261 C 255.302 233.46 252.797 237.308 253.434 228.888 C 253.942 222.241 253.029 215.228 249.614 209.406 C 245.97 203.182 239.782 198.852 233.241 196.258 C 226.699 193.662 225.077 180.636 218.2 179.616" fill="#2f2e41" style="" transform="matrix(-0.999678, -0.025365, 0.025365, -0.999678, 358.574224, 492.990059)"/>
  <circle cx="698.263" cy="112.286" r="27" style="" transform="matrix(1.120796, 0, 0, 1.107375, -332.585851, 108.982057)"/>
  <path d="M 450.41 227.908 C 452.065 225.696 453.896 223.955 456.237 223.955 C 460.655 223.955 464.294 229.512 464.297 236.129 C 464.297 240.165 462.538 242.695 459.379 242.695 C 456.626 242.695 455.105 241.169 452.378 236.659 L 451.188 234.681 L 450.977 234.333 C 450.667 233.815 450.352 233.3 450.032 232.787 L 447.931 236.453 C 444.946 241.609 443.265 242.695 440.931 242.695 C 437.689 242.695 435.751 240.201 435.751 236.245 C 435.751 229.927 439.311 223.955 443.954 223.955 C 444.524 223.955 445.069 224.023 445.603 224.169 C 446.155 224.321 446.692 224.558 447.231 224.887 C 448.26 225.52 449.29 226.5 450.41 227.908 Z M 453.115 231.828 C 452.665 231.106 452.234 230.442 451.818 229.831 L 451.807 229.817 C 453.314 227.517 454.559 226.373 456.039 226.373 C 459.112 226.373 461.572 230.845 461.572 236.337 C 461.572 238.431 460.877 239.646 459.44 239.646 C 458.062 239.646 457.404 238.747 454.784 234.586 L 453.113 231.828 L 453.115 231.828 Z M 444.397 227.05 C 445.689 227.226 446.867 228.167 448.571 230.577 C 447.588 232.064 446.616 233.559 445.654 235.059 C 443.234 238.807 442.396 239.647 441.049 239.647 C 439.664 239.647 438.838 238.446 438.838 236.298 C 438.838 231.712 441.153 227.02 443.915 227.02 C 444.078 227.02 444.238 227.031 444.397 227.052 L 444.397 227.05 Z" fill="#fff" fill-rule="evenodd" style=""/>
</svg>