<?xml version="1.0" encoding="utf-8"?>
<svg viewBox="0 0 655.27173 556.25" xmlns="http://www.w3.org/2000/svg">
  <path d="M703.08435,171.875h-422a8.72772,8.72772,0,0,0-8.72022,8.72v411.32a8.72777,8.72777,0,0,0,8.72022,8.72h37v-2.49h-37a6.23726,6.23726,0,0,1-6.23-6.23V180.595a6.23724,6.23724,0,0,1,6.23-6.23h422a6.23974,6.23974,0,0,1,6.24023,6.23v411.32a6.17925,6.17925,0,0,1-1.03027,3.42,6.446,6.446,0,0,1-2.35986,2.12,6.18583,6.18583,0,0,1-2.8501.69h-37v2.49h37a8.71218,8.71218,0,0,0,6.62988-3.06,1.94636,1.94636,0,0,0,.18994-.24,8.15272,8.15272,0,0,0,1.25-2.11,8.49852,8.49852,0,0,0,.66016-3.31V180.595A8.7298,8.7298,0,0,0,703.08435,171.875Z" transform="matrix(1, 0, 0, 1, -272.364136, -171.875)" fill="#3f3d56"/>
  <rect x="1.24228" y="34.95306" width="436.95676" height="2.49281" fill="#3f3d56"/>
  <circle cx="22.43119" cy="18.69995" r="7.47844" fill="#3f3d56"/>
  <circle cx="43.9317" cy="18.69995" r="7.47844" fill="#3f3d56"/>
  <circle cx="65.4322" cy="18.69995" r="7.47844" fill="#3f3d56"/>
  <path d="M597.58862,264.5308h-211a13,13,0,0,1,0-26h211a13,13,0,0,1,0,26Zm-211-24a11,11,0,0,0,0,22h211a11,11,0,0,0,0-22Z" transform="matrix(1, 0, 0, 1, -272.364136, -171.875)" fill="#3f3d56"/>
  <path d="M651.0885,446.125h-318a17.01917,17.01917,0,0,1-17-17v-102a17.01917,17.01917,0,0,1,17-17h318a17.01917,17.01917,0,0,1,17,17v102A17.01917,17.01917,0,0,1,651.0885,446.125Zm-318-134a15.017,15.017,0,0,0-15,15v102a15.017,15.017,0,0,0,15,15h318a15.017,15.017,0,0,0,15-15v-102a15.017,15.017,0,0,0-15-15Z" transform="matrix(1, 0, 0, 1, -272.364136, -171.875)" fill="#3f3d56"/>
  <path d="M533.78946,372.625h-111a8,8,0,1,1,0-16h111a8,8,0,0,1,0,16Z" transform="matrix(1, 0, 0, 1, -272.364136, -171.875)" fill="#ffda79"/>
  <path d="M636.78946,399.625h-214a8,8,0,1,1,0-16h214a8,8,0,0,1,0,16Z" transform="matrix(1, 0, 0, 1, -272.364136, -171.875)" fill="#ffda79"/>
  <circle cx="97.02364" cy="206.25" r="30" fill="#ffda79"/>
  <path d="M636.7776,432.125h-28a8,8,0,1,1,0-16h28a8,8,0,0,1,0,16Z" transform="matrix(1, 0, 0, 1, -272.364136, -171.875)" fill="#fff"/>
  <path d="M636.7776,432.125h-28a8,8,0,1,1,0-16h28a8,8,0,0,1,0,16Z" transform="matrix(1, 0, 0, 1, -272.364136, -171.875)" fill="#ccc"/>
  <path d="M651.08435,494.125h-318a17.0241,17.0241,0,0,0-17,17v102a17.0241,17.0241,0,0,0,17,17h318a17.01783,17.01783,0,0,0,17-17v-102A17.01783,17.01783,0,0,0,651.08435,494.125Zm15,119a15.012,15.012,0,0,1-15,15h-318a15.01828,15.01828,0,0,1-15-15v-102a15.01828,15.01828,0,0,1,15-15h318a15.012,15.012,0,0,1,15,15Z" transform="matrix(1, 0, 0, 1, -272.364136, -171.875)" fill="#3f3d56"/>
  <path d="M533.78946,556.625h-111a8,8,0,1,1,0-16h111a8,8,0,0,1,0,16Z" transform="matrix(1, 0, 0, 1, -272.364136, -171.875)" fill="#ffda79"/>
  <path d="M636.78946,583.625h-214a8,8,0,1,1,0-16h214a8,8,0,0,1,0,16Z" transform="matrix(1, 0, 0, 1, -272.364136, -171.875)" fill="#ffda79"/>
  <circle cx="97.02364" cy="390.25" r="30" fill="#ffda79"/>
  <path d="M636.7776,616.125h-28a8,8,0,1,1,0-16h28a8,8,0,0,1,0,16Z" transform="matrix(1, 0, 0, 1, -272.364136, -171.875)" fill="#ccc"/>
  <ellipse cx="572.51" cy="132.336" rx="26.109" ry="25.734" fill="#2f2e41" style=""/>
  <path d="M 496.497 292.65 L 489.887 302.387 C 489.887 302.387 458.16 309.342 470.058 319.775 C 481.955 330.207 499.141 310.038 499.141 310.038 L 508.395 297.518 L 496.497 292.65 Z" fill="#ffb8b8" style=""/>
  <path d="M 530.868 182.064 C 530.868 182.064 522.275 182.064 520.292 194.584 C 518.309 207.103 516.326 248.833 516.326 248.833 C 516.326 248.833 488.565 287.086 493.192 291.954 C 497.819 296.823 503.107 305.865 506.412 304.474 C 509.717 303.083 538.139 262.048 538.139 262.048 L 530.868 182.064 Z" fill="#ffda79" style=""/>
  <path d="M 530.868 182.064 C 530.868 182.064 522.275 182.064 520.292 194.584 C 518.309 207.103 516.326 248.833 516.326 248.833 C 516.326 248.833 488.565 287.086 493.192 291.954 C 497.819 296.823 503.107 305.865 506.412 304.474 C 509.717 303.083 538.139 262.048 538.139 262.048 L 530.868 182.064 Z" opacity="0.1" style=""/>
  <path d="M 557.307 146.594 C 557.307 146.594 556.646 173.718 548.715 175.109 C 540.783 176.5 543.427 185.542 543.427 185.542 C 543.427 185.542 569.205 201.539 586.391 185.542 L 589.695 177.196 C 589.695 177.196 577.798 168.154 583.086 155.635 L 557.307 146.594 Z" fill="#ffb8b8" style=""/>
  <path d="M 513.022 313.515 C 513.022 313.515 474.024 390.021 488.565 413.668 C 503.107 437.315 524.919 486.001 528.224 486.001 C 531.529 486.001 550.037 476.263 548.715 470.004 C 547.393 463.744 527.563 417.145 522.275 412.972 C 516.987 408.799 519.631 397.671 520.292 396.976 C 520.953 396.28 542.766 359.418 542.766 359.418 C 542.766 359.418 542.105 417.841 544.749 426.883 C 547.393 435.924 544.088 500.606 547.393 503.388 C 550.698 506.17 565.9 511.039 568.544 506.866 C 571.188 502.693 579.12 439.402 573.832 424.796 L 583.747 324.643 L 513.022 313.515 Z" fill="#2f2e41" style=""/>
  <path d="M 548.715 499.215 L 532.19 531.208 C 532.19 531.208 508.395 549.292 524.919 552.074 C 541.444 554.856 551.359 547.901 551.359 547.901 L 565.9 536.773 L 565.9 504.779 L 548.715 499.215 Z" fill="#2f2e41" style=""/>
  <path d="M 526.241 481.132 L 534.834 502.693 C 534.834 502.693 538.139 511.734 534.834 513.821 C 531.529 515.907 522.275 528.426 528.224 529.817 C 529.421 530.064 530.637 530.192 531.856 530.197 C 541.866 530.375 551.511 526.245 558.559 518.764 L 563.917 513.125 C 563.917 513.125 545.562 468.649 545.816 468.979 C 546.071 469.308 526.241 481.132 526.241 481.132 Z" fill="#2f2e41" style=""/>
  <circle cx="623.516" cy="-31.392" r="34" fill="#ffb8b8" style="" transform="matrix(0.660982, 0, 0, 0.695506, 161.699206, 161.471606)"/>
  <path d="M 586.721 172.675 L 579.781 179.978 C 579.781 179.978 558.629 188.324 548.715 179.978 C 548.715 179.978 552.35 171.98 552.35 172.675 C 552.35 173.371 523.597 177.891 520.953 190.411 C 518.309 202.93 522.936 224.49 522.936 224.49 C 522.936 224.49 504.429 316.297 511.7 318.384 C 518.97 320.47 587.052 337.858 586.391 324.643 C 585.73 311.429 591.678 257.179 591.678 257.179 L 614.813 210.58 C 614.813 210.58 611.508 195.279 603.576 190.411 C 595.644 185.542 586.721 172.675 586.721 172.675 Z" fill="#ffda79" style=""/>
  <path d="M 557.307 308.647 L 548.715 314.211 C 548.715 314.211 515.666 337.858 532.851 342.031 C 550.037 346.204 559.951 325.339 559.951 325.339 L 566.561 316.993 L 557.307 308.647 Z" fill="#ffb8b8" style=""/>
  <path d="M 606.22 206.407 L 612.169 212.667 C 612.169 212.667 616.135 271.089 608.203 282.913 C 600.271 294.736 563.917 326.73 561.934 324.643 C 559.951 322.557 547.393 312.124 550.037 310.733 C 552.68 309.342 587.833 270.693 587.833 270.693 L 585.069 216.84 L 606.22 206.407 Z" opacity="0.1" style=""/>
  <path d="M 608.864 204.321 L 614.813 210.58 C 614.813 210.58 618.779 269.003 610.847 280.826 C 602.915 292.65 566.561 324.643 564.578 322.557 C 562.595 320.47 550.037 310.038 552.68 308.647 C 555.324 307.256 590.477 268.607 590.477 268.607 L 587.713 214.753 L 608.864 204.321 Z" fill="#ffda79" style=""/>
  <path d="M 564.537 106.049 C 564.537 106.049 556.898 103.126 546.481 109.337 L 552.037 110.799 C 552.037 110.799 543.703 111.53 542.661 123.222 L 546.481 123.222 C 546.481 123.222 544.05 133.453 546.481 136.375 L 548.044 133.27 L 552.558 142.77 L 553.599 138.019 L 555.683 138.75 L 557.071 131.078 C 557.071 131.078 560.544 136.558 563.322 136.923 L 563.322 132.174 C 563.322 132.174 570.961 141.309 573.392 140.943 L 569.92 135.827 L 574.781 136.923 L 572.698 133.27 L 585.198 136.923 L 582.42 133.27 L 591.101 136.193 L 595.268 138.019 C 595.268 138.019 601.171 123.77 592.838 113.905 C 584.503 104.04 572.351 101.848 564.537 106.049 Z" fill="#2f2e41" style=""/>
</svg>